<?xml version="1.0" encoding="UTF-8"?>
<svg xmlns="http://www.w3.org/2000/svg" viewBox="330 265 340 440">
  <g>
    <polygon fill="#50b0be" points="424.8 684.54 360.15 684.54 360.15 340.25 369.58 340.25 369.58 675.12 415.38 675.12 415.38 531.02 424.8 531.02 424.8 684.54"/>
    <path fill="#50b0be" d="M643.79,405.87c0-74.09-65.96-113.56-113.57-113.56h-116.85v9.42h116.85c43.66,0,104.14,36.19,104.14,104.14,0,53.77-37.88,87.66-75.33,99.45,1.14,2.88,2.18,5.89,3.13,9.01,15.87-4.96,31.13-13.35,43.8-24.46,24.38-21.38,37.82-51.21,37.82-84.01h0Z"/>
    <path fill="#50b0be" d="M599.53,405.87c0-28.13-12.69-43.71-23.34-51.84-16.28-12.42-34.99-13.77-42.27-13.77-23.65,0-67.22.43-67.66.43l.09,9.42c.44,0,43.96-.43,67.57-.43,20.87,0,56.19,11.84,56.19,56.19s-41.61,56.2-56.19,56.2c-2.06,0-4.14-.02-6.22-.07,3.45,2.83,6.79,5.94,9.99,9.35,25.39-1.66,61.84-19.98,61.84-65.48Z"/>
    <path fill="#252324" d="M617.94,686.1c-.19,0-.37,0-.55-.02-22.64-1.92-40.04-9.87-51.68-23.64-12.27-14.49-14.85-31.55-14.85-43.32,0-36.8.04-41.22.07-44.14.01-1.46.02-2.57.02-7.22,0-46.81-16.96-80.92-50.39-101.38-29.81-18.24-61.07-18.45-62.38-18.45-24.33,0-36.91,3.36-37.04,3.4-3.45.95-7.01-1.08-7.96-4.52-.95-3.44,1.06-7,4.49-7.96.56-.16,14.17-3.88,40.51-3.88,1.46,0,36.26.23,69.15,20.36,25.82,15.8,56.58,48.13,56.58,112.44,0,4.73-.01,5.85-.02,7.34-.03,2.9-.07,7.28-.07,44.02,0,14.86,5.33,49.88,54.67,54.05,3.56.3,6.21,3.44,5.9,7-.28,3.37-3.11,5.93-6.45,5.93h-.01Z"/>
    <path fill="#252324" d="M534,684.46c-1.63,0-3.27-.62-4.52-1.84-21.44-20.95-20.9-58.36-20.79-61.88l-1.39-59.49c-1.57-29.8-13.55-50.45-35.64-61.41-16.68-8.27-32.92-7.79-33.09-7.79-3.59.19-6.58-2.66-6.71-6.24-.13-3.57,2.66-6.58,6.24-6.71.79-.03,19.71-.6,39.31,9.13,18.29,9.08,40.57,29.01,42.81,72.43v.19l1.39,59.76v.39c-.01.33-1,34.86,16.89,52.34,2.56,2.5,2.61,6.6.1,9.16-1.26,1.3-2.95,1.95-4.64,1.95h.02Z"/>
    <path fill="#252324" d="M630.89,650.62c-12.79,0-22.51-3.43-28.89-10.19-8.93-9.47-9.42-23.16-8.71-35.31.21-3.57,3.27-6.29,6.84-6.09,3.57.21,6.3,3.27,6.09,6.84-.57,9.86-.33,19.8,5.2,25.67,3.83,4.06,10.38,6.13,19.47,6.13,3.57,0,6.48,2.9,6.48,6.48s-2.9,6.48-6.48,6.48h-.01Z"/>
  </g>
</svg>
